<?xml version="1.0" encoding="UTF-8"?>
<!DOCTYPE svg PUBLIC "-//W3C//DTD SVG 1.1//EN" "http://www.w3.org/Graphics/SVG/1.1/DTD/svg11.dtd">
<!-- Creator: CorelDRAW 2026 -->
<svg xmlns="http://www.w3.org/2000/svg" xml:space="preserve" width="1.61993in" height="1.61993in" version="1.1" style="shape-rendering:geometricPrecision; text-rendering:geometricPrecision; image-rendering:optimizeQuality; fill-rule:evenodd; clip-rule:evenodd"
viewBox="0 0 2107.31 2107.31"
 xmlns:xlink="http://www.w3.org/1999/xlink"
 xmlns:xodm="http://www.corel.com/coreldraw/odm/2003">
 <defs>
  <style type="text/css">
   <![CDATA[
    .fil0 {fill:black}
    .fil4 {fill:#52DEE4}
    .fil3 {fill:#52DEE5}
    .fil2 {fill:#52DEE5}
    .fil6 {fill:#53DEE3}
    .fil5 {fill:#53DEE4}
    .fil7 {fill:#54DEE3}
    .fil9 {fill:#54DFE2}
    .fil8 {fill:#54DFE3}
    .fil11 {fill:#55DFE1}
    .fil10 {fill:#55DFE2}
    .fil13 {fill:#56DFDF}
    .fil12 {fill:#56DFE0}
    .fil15 {fill:#57DFDE}
    .fil14 {fill:#57DFDF}
    .fil17 {fill:#58E0DD}
    .fil16 {fill:#58E0DE}
    .fil19 {fill:#59E0DC}
    .fil18 {fill:#59E0DD}
    .fil21 {fill:#5AE0DA}
    .fil20 {fill:#5AE0DB}
    .fil22 {fill:#5BE0DA}
    .fil23 {fill:#5BE1D9}
    .fil25 {fill:#5CE1D8}
    .fil24 {fill:#5CE1D9}
    .fil27 {fill:#5DE1D7}
    .fil26 {fill:#5DE1D8}
    .fil28 {fill:#5EE1D6}
    .fil29 {fill:#5FE1D5}
    .fil31 {fill:#5FE2D4}
    .fil30 {fill:#5FE2D5}
    .fil33 {fill:#60E2D3}
    .fil32 {fill:#60E2D4}
    .fil35 {fill:#61E2D2}
    .fil34 {fill:#61E2D3}
    .fil37 {fill:#62E2D0}
    .fil36 {fill:#62E2D1}
    .fil39 {fill:#63E3CF}
    .fil38 {fill:#63E3D0}
    .fil41 {fill:#64E3CE}
    .fil40 {fill:#64E3CF}
    .fil42 {fill:#65E3CD}
    .fil43 {fill:#66E3CC}
    .fil44 {fill:#66E4CB}
    .fil46 {fill:#67E4CA}
    .fil45 {fill:#67E4CB}
    .fil48 {fill:#68E4C9}
    .fil47 {fill:#68E4CA}
    .fil50 {fill:#69E4C8}
    .fil49 {fill:#69E4C9}
    .fil51 {fill:#6AE4C7}
    .fil53 {fill:#6AE5C6}
    .fil52 {fill:#6AE5C7}
    .fil55 {fill:#6BE5C5}
    .fil54 {fill:#6BE5C6}
    .fil56 {fill:#6CE5C4}
    .fil58 {fill:#6DE5C3}
    .fil57 {fill:#6DE5C4}
    .fil59 {fill:#6EE6C2}
    .fil61 {fill:#6FE6C0}
    .fil60 {fill:#6FE6C1}
    .fil63 {fill:#70E6BF}
    .fil62 {fill:#70E6C0}
    .fil64 {fill:#71E6BE}
    .fil65 {fill:#72E7BD}
    .fil67 {fill:#73E7BB}
    .fil66 {fill:#73E7BC}
    .fil68 {fill:#74E7BA}
    .fil69 {fill:#75E7B9}
    .fil70 {fill:#75E8B9}
    .fil71 {fill:#76E8B8}
    .fil73 {fill:#77E8B6}
    .fil72 {fill:#77E8B7}
    .fil74 {fill:#78E8B5}
    .fil75 {fill:#79E9B4}
    .fil77 {fill:#7AE9B2}
    .fil76 {fill:#7AE9B3}
    .fil78 {fill:#7BE9B1}
    .fil79 {fill:#7CE9B1}
    .fil81 {fill:#7DEAAF}
    .fil80 {fill:#7DEAB0}
    .fil82 {fill:#7EEAAE}
    .fil83 {fill:#7FEAAD}
    .fil84 {fill:#80EAAC}
    .fil85 {fill:#80EBAB}
    .fil86 {fill:#81EBAA}
    .fil87 {fill:#82EBA9}
    .fil88 {fill:#83EBA7}
    .fil89 {fill:#84ECA6}
    .fil90 {fill:#85ECA5}
    .fil91 {fill:#86ECA4}
    .fil92 {fill:#87ECA3}
    .fil93 {fill:#87EDA2}
    .fil94 {fill:#88EDA1}
    .fil95 {fill:#89EDA0}
    .fil96 {fill:#8AED9E}
    .fil97 {fill:#8BEE9D}
    .fil98 {fill:#8CEE9C}
    .fil99 {fill:#8DEE9B}
    .fil100 {fill:#8EEE99}
    .fil101 {fill:#8FEF98}
    .fil102 {fill:#90EF97}
    .fil103 {fill:#91EF96}
    .fil104 {fill:#92F094}
    .fil105 {fill:#93F093}
    .fil106 {fill:#94F092}
    .fil107 {fill:#95F090}
    .fil108 {fill:#97F18F}
    .fil109 {fill:#98F18E}
    .fil110 {fill:#99F18C}
    .fil111 {fill:#9AF28B}
    .fil112 {fill:#9BF289}
    .fil113 {fill:#9CF288}
    .fil114 {fill:#9DF386}
    .fil115 {fill:#9EF385}
    .fil116 {fill:#A0F383}
    .fil117 {fill:#A1F382}
    .fil118 {fill:#A2F480}
    .fil119 {fill:#A3F47F}
    .fil120 {fill:#A4F47D}
    .fil121 {fill:#A6F57C}
    .fil122 {fill:#A7F57A}
    .fil123 {fill:#A8F579}
    .fil124 {fill:#A9F677}
    .fil125 {fill:#ABF676}
    .fil126 {fill:#ACF674}
    .fil127 {fill:#ADF773}
    .fil128 {fill:#AEF771}
    .fil129 {fill:#B0F86F}
    .fil130 {fill:#B1F86E}
    .fil131 {fill:#B2F86C}
    .fil132 {fill:#B3F96B}
    .fil133 {fill:#B5F969}
    .fil134 {fill:#B6F968}
    .fil135 {fill:#B7FA66}
    .fil136 {fill:#B8FA65}
    .fil137 {fill:#B9FA63}
    .fil138 {fill:#BBFB62}
    .fil139 {fill:#BCFB60}
    .fil140 {fill:#BDFB5F}
    .fil141 {fill:#BEFB5D}
    .fil142 {fill:#BFFC5C}
    .fil143 {fill:#C0FC5A}
    .fil144 {fill:#C1FC59}
    .fil145 {fill:#C2FD58}
    .fil146 {fill:#C3FD57}
    .fil147 {fill:#C4FD55}
    .fil148 {fill:#C5FD54}
    .fil149 {fill:#C6FE53}
    .fil150 {fill:#C7FE52}
    .fil152 {fill:#C8FE50}
    .fil151 {fill:#C8FE51}
    .fil153 {fill:#C9FE4F}
    .fil155 {fill:#CAFF4E}
    .fil154 {fill:#CAFF4F}
    .fil156 {fill:#CBFF4D}
    .fil157 {fill:#CBFF4D}
    .fil1 {fill:#F42C04}
   ]]>
  </style>
    <clipPath id="id0">
     <path d="M1673.76 426.83l-834.29 3.44c-237.31,0.97 -431.48,194.16 -431.48,431.48l0 0c0,237.32 194.17,431.48 431.48,431.48 712.8,0 872.71,-720.48 859.1,-847.46 -1.95,-18.18 -15.36,-18.98 -24.81,-18.93z"/>
    </clipPath>
 </defs>
 <g id="Layer_x0020_1">
  <metadata id="CorelCorpID_0Corel-Layer"/>
  <rect class="fil0" x="-0.01" y="-0" width="2107.32" height="2107.32"/>
  <path class="fil1" d="M433.57 1680.87l834.29 -3.44c237.31,-0.98 431.48,-194.16 431.48,-431.48l0 0c0,-237.32 -194.17,-431.48 -431.48,-431.48 -712.81,0 -872.72,720.47 -859.1,847.46 1.95,18.18 15.36,18.98 24.81,18.93z"/>
  <g>
   <g style="clip-path:url(#id0)">
    <polygon class="fil2" points="1563.53,71.7 1687.62,403.51 336.79,908.71 212.7,576.89 "/>
    <polygon id="_1" class="fil3" points="1687.29,402.63 1688.28,405.28 337.45,910.47 336.46,907.83 "/>
    <polygon id="_2" class="fil3" points="1687.95,404.4 1688.94,407.04 338.11,912.24 337.12,909.59 "/>
    <polygon id="_3" class="fil3" points="1688.61,406.16 1689.6,408.81 338.77,914 337.78,911.36 "/>
    <polygon id="_4" class="fil3" points="1689.27,407.93 1690.26,410.58 339.43,915.77 338.44,913.12 "/>
    <polygon id="_5" class="fil3" points="1689.93,409.69 1690.92,412.34 340.09,917.53 339.1,914.88 "/>
    <polygon id="_6" class="fil3" points="1690.59,411.46 1691.58,414.11 340.75,919.3 339.76,916.65 "/>
    <polygon id="_7" class="fil3" points="1691.25,413.23 1692.24,415.87 341.41,921.06 340.42,918.41 "/>
    <polygon id="_8" class="fil3" points="1691.91,414.99 1692.9,417.64 342.07,922.83 341.08,920.18 "/>
    <polygon id="_9" class="fil3" points="1692.57,416.75 1693.56,419.4 342.73,924.59 341.74,921.95 "/>
    <polygon id="_10" class="fil3" points="1693.23,418.52 1694.22,421.16 343.39,926.36 342.4,923.71 "/>
    <polygon id="_11" class="fil3" points="1693.89,420.28 1694.88,422.93 344.05,928.12 343.06,925.48 "/>
    <polygon id="_12" class="fil3" points="1694.55,422.05 1695.54,424.7 344.71,929.89 343.72,927.24 "/>
    <polygon id="_13" class="fil3" points="1695.21,423.81 1696.2,426.46 345.37,931.65 344.38,929 "/>
    <polygon id="_14" class="fil3" points="1695.87,425.58 1696.86,428.23 346.03,933.42 345.04,930.77 "/>
    <polygon id="_15" class="fil3" points="1696.53,427.34 1697.52,429.99 346.69,935.18 345.7,932.53 "/>
    <polygon id="_16" class="fil3" points="1697.19,429.11 1698.18,431.76 347.35,936.95 346.36,934.3 "/>
    <polygon id="_17" class="fil3" points="1697.85,430.87 1698.84,433.52 348.01,938.71 347.02,936.07 "/>
    <polygon id="_18" class="fil3" points="1698.51,432.64 1699.5,435.28 348.67,940.48 347.68,937.83 "/>
    <polygon id="_19" class="fil3" points="1699.17,434.4 1700.16,437.05 349.33,942.24 348.34,939.6 "/>
    <polygon id="_20" class="fil3" points="1699.83,436.17 1700.82,438.81 349.99,944.01 349,941.36 "/>
    <polygon id="_21" class="fil3" points="1700.49,437.93 1701.48,440.58 350.65,945.77 349.66,943.12 "/>
    <polygon id="_22" class="fil3" points="1701.15,439.7 1702.14,442.35 351.31,947.54 350.32,944.89 "/>
    <polygon id="_23" class="fil3" points="1701.81,441.46 1702.8,444.11 351.97,949.3 350.98,946.65 "/>
    <polygon id="_24" class="fil3" points="1702.47,443.23 1703.46,445.88 352.63,951.07 351.64,948.42 "/>
    <polygon id="_25" class="fil3" points="1703.13,444.99 1704.12,447.64 353.29,952.83 352.3,950.18 "/>
    <polygon id="_26" class="fil3" points="1703.79,446.76 1704.78,449.4 353.95,954.6 352.96,951.95 "/>
    <polygon id="_27" class="fil4" points="1704.45,448.52 1705.44,451.17 354.61,956.36 353.62,953.72 "/>
    <polygon id="_28" class="fil4" points="1705.11,450.28 1706.1,452.93 355.27,958.13 354.28,955.48 "/>
    <polygon id="_29" class="fil4" points="1705.77,452.05 1706.76,454.7 355.93,959.89 354.94,957.24 "/>
    <polygon id="_30" class="fil5" points="1706.43,453.82 1707.42,456.47 356.59,961.65 355.6,959.01 "/>
    <polygon id="_31" class="fil5" points="1707.09,455.58 1708.08,458.23 357.25,963.42 356.26,960.77 "/>
    <polygon id="_32" class="fil5" points="1707.75,457.35 1708.74,460 357.91,965.19 356.92,962.54 "/>
    <polygon id="_33" class="fil5" points="1708.41,459.11 1709.4,461.76 358.57,966.95 357.58,964.3 "/>
    <polygon id="_34" class="fil5" points="1709.07,460.88 1710.06,463.52 359.23,968.72 358.24,966.07 "/>
    <polygon id="_35" class="fil5" points="1709.73,462.64 1710.72,465.29 359.89,970.48 358.9,967.84 "/>
    <polygon id="_36" class="fil5" points="1710.39,464.4 1711.38,467.05 360.55,972.25 359.56,969.6 "/>
    <polygon id="_37" class="fil5" points="1711.05,466.17 1712.04,468.82 361.21,974.01 360.22,971.36 "/>
    <polygon id="_38" class="fil5" points="1711.71,467.94 1712.7,470.59 361.87,975.77 360.88,973.13 "/>
    <polygon id="_39" class="fil5" points="1712.37,469.7 1713.36,472.35 362.53,977.54 361.54,974.89 "/>
    <polygon id="_40" class="fil5" points="1713.03,471.47 1714.02,474.12 363.19,979.31 362.2,976.66 "/>
    <polygon id="_41" class="fil5" points="1713.69,473.23 1714.68,475.88 363.85,981.07 362.86,978.42 "/>
    <polygon id="_42" class="fil5" points="1714.35,475 1715.34,477.64 364.51,982.84 363.52,980.19 "/>
    <polygon id="_43" class="fil5" points="1715.01,476.76 1716,479.41 365.18,984.6 364.18,981.95 "/>
    <polygon id="_44" class="fil6" points="1715.67,478.52 1716.66,481.17 365.83,986.37 364.84,983.72 "/>
    <polygon id="_45" class="fil6" points="1716.33,480.29 1717.32,482.94 366.49,988.13 365.5,985.48 "/>
    <polygon id="_46" class="fil6" points="1716.99,482.05 1717.98,484.7 367.15,989.89 366.16,987.25 "/>
    <polygon id="_47" class="fil6" points="1717.65,483.82 1718.64,486.47 367.81,991.66 366.82,989.01 "/>
    <polygon id="_48" class="fil6" points="1718.31,485.59 1719.3,488.24 368.47,993.42 367.49,990.78 "/>
    <polygon id="_49" class="fil7" points="1718.97,487.35 1719.96,490 369.13,995.19 368.15,992.54 "/>
    <polygon id="_50" class="fil7" points="1719.63,489.12 1720.62,491.76 369.79,996.96 368.8,994.31 "/>
    <polygon id="_51" class="fil7" points="1720.29,490.88 1721.28,493.53 370.46,998.72 369.46,996.07 "/>
    <polygon id="_52" class="fil7" points="1720.95,492.64 1721.94,495.29 371.11,1000.49 370.12,997.84 "/>
    <polygon id="_53" class="fil7" points="1721.61,494.41 1722.6,497.06 371.77,1002.25 370.78,999.6 "/>
    <polygon id="_54" class="fil8" points="1722.27,496.17 1723.26,498.82 372.43,1004.01 371.44,1001.37 "/>
    <polygon id="_55" class="fil8" points="1722.93,497.94 1723.92,500.59 373.09,1005.78 372.1,1003.13 "/>
    <polygon id="_56" class="fil9" points="1723.59,499.71 1724.58,502.36 373.75,1007.54 372.77,1004.9 "/>
    <polygon id="_57" class="fil9" points="1724.25,501.47 1725.24,504.12 374.41,1009.31 373.43,1006.66 "/>
    <polygon id="_58" class="fil9" points="1724.91,503.24 1725.9,505.88 375.08,1011.08 374.08,1008.43 "/>
    <polygon id="_59" class="fil9" points="1725.57,505 1726.56,507.65 375.74,1012.84 374.74,1010.19 "/>
    <polygon id="_60" class="fil9" points="1726.23,506.76 1727.22,509.41 376.4,1014.61 375.4,1011.96 "/>
    <polygon id="_61" class="fil10" points="1726.89,508.53 1727.88,511.18 377.05,1016.37 376.06,1013.72 "/>
    <polygon id="_62" class="fil10" points="1727.55,510.29 1728.54,512.94 377.71,1018.13 376.72,1015.49 "/>
    <polygon id="_63" class="fil10" points="1728.21,512.06 1729.2,514.71 378.37,1019.9 377.38,1017.25 "/>
    <polygon id="_64" class="fil11" points="1728.87,513.83 1729.86,516.47 379.03,1021.66 378.05,1019.02 "/>
    <polygon id="_65" class="fil11" points="1729.53,515.59 1730.52,518.24 379.69,1023.43 378.71,1020.78 "/>
    <polygon id="_66" class="fil11" points="1730.19,517.36 1731.18,520 380.36,1025.19 379.36,1022.55 "/>
    <polygon id="_67" class="fil11" points="1730.85,519.12 1731.84,521.77 381.02,1026.96 380.02,1024.31 "/>
    <polygon id="_68" class="fil11" points="1731.51,520.89 1732.5,523.53 381.68,1028.73 380.68,1026.08 "/>
    <polygon id="_69" class="fil11" points="1732.17,522.65 1733.16,525.3 382.33,1030.49 381.34,1027.84 "/>
    <polygon id="_70" class="fil11" points="1732.83,524.41 1733.82,527.06 382.99,1032.25 382,1029.61 "/>
    <polygon id="_71" class="fil12" points="1733.49,526.18 1734.48,528.83 383.65,1034.02 382.67,1031.37 "/>
    <polygon id="_72" class="fil12" points="1734.15,527.94 1735.14,530.59 384.31,1035.78 383.33,1033.14 "/>
    <polygon id="_73" class="fil12" points="1734.81,529.71 1735.8,532.36 384.98,1037.55 383.99,1034.9 "/>
    <polygon id="_74" class="fil12" points="1735.47,531.48 1736.46,534.12 385.64,1039.31 384.65,1036.66 "/>
    <polygon id="_75" class="fil12" points="1736.13,533.24 1737.12,535.89 386.3,1041.08 385.3,1038.43 "/>
    <polygon id="_76" class="fil12" points="1736.79,535.01 1737.78,537.65 386.96,1042.85 385.96,1040.2 "/>
    <polygon id="_77" class="fil13" points="1737.45,536.77 1738.44,539.41 387.61,1044.61 386.62,1041.96 "/>
    <polygon id="_78" class="fil14" points="1738.11,538.53 1739.1,541.18 388.27,1046.37 387.28,1043.73 "/>
    <polygon id="_79" class="fil14" points="1738.77,540.3 1739.76,542.95 388.93,1048.14 387.95,1045.49 "/>
    <polygon id="_80" class="fil14" points="1739.43,542.06 1740.42,544.71 389.59,1049.9 388.61,1047.26 "/>
    <polygon id="_81" class="fil14" points="1740.09,543.83 1741.08,546.48 390.26,1051.67 389.27,1049.02 "/>
    <polygon id="_82" class="fil14" points="1740.75,545.6 1741.74,548.24 390.92,1053.43 389.93,1050.78 "/>
    <polygon id="_83" class="fil15" points="1741.41,547.36 1742.4,550.01 391.58,1055.2 390.58,1052.55 "/>
    <polygon id="_84" class="fil15" points="1742.07,549.13 1743.06,551.77 392.24,1056.97 391.24,1054.32 "/>
    <polygon id="_85" class="fil16" points="1742.73,550.89 1743.72,553.53 392.9,1058.73 391.9,1056.08 "/>
    <polygon id="_86" class="fil16" points="1743.39,552.65 1744.38,555.3 393.55,1060.49 392.57,1057.85 "/>
    <polygon id="_87" class="fil16" points="1744.05,554.42 1745.04,557.07 394.21,1062.26 393.23,1059.61 "/>
    <polygon id="_88" class="fil17" points="1744.72,556.18 1745.7,558.83 394.87,1064.02 393.89,1061.38 "/>
    <polygon id="_89" class="fil17" points="1745.37,557.95 1746.36,560.6 395.54,1065.79 394.55,1063.14 "/>
    <polygon id="_90" class="fil17" points="1746.03,559.71 1747.02,562.36 396.2,1067.55 395.21,1064.9 "/>
    <polygon id="_91" class="fil18" points="1746.69,561.48 1747.68,564.13 396.86,1069.32 395.86,1066.67 "/>
    <polygon id="_92" class="fil19" points="1747.35,563.25 1748.34,565.89 397.52,1071.08 396.52,1068.44 "/>
    <polygon id="_93" class="fil19" points="1748.01,565.01 1749,567.65 398.18,1072.85 397.18,1070.2 "/>
    <polygon id="_94" class="fil19" points="1748.67,566.77 1749.66,569.42 398.83,1074.61 397.85,1071.97 "/>
    <polygon id="_95" class="fil19" points="1749.33,568.54 1750.32,571.18 399.49,1076.38 398.51,1073.73 "/>
    <polygon id="_96" class="fil20" points="1750,570.3 1750.98,572.95 400.16,1078.14 399.17,1075.5 "/>
    <polygon id="_97" class="fil20" points="1750.65,572.07 1751.64,574.72 400.82,1079.91 399.83,1077.26 "/>
    <polygon id="_98" class="fil20" points="1751.31,573.83 1752.31,576.48 401.48,1081.67 400.49,1079.02 "/>
    <polygon id="_99" class="fil20" points="1751.97,575.6 1752.97,578.25 402.14,1083.44 401.15,1080.79 "/>
    <polygon id="_100" class="fil21" points="1752.63,577.37 1753.62,580.01 402.8,1085.2 401.8,1082.55 "/>
    <polygon id="_101" class="fil22" points="1753.29,579.13 1754.28,581.77 403.46,1086.97 402.47,1084.32 "/>
    <polygon id="_102" class="fil22" points="1753.95,580.89 1754.94,583.54 404.12,1088.73 403.13,1086.09 "/>
    <polygon id="_103" class="fil22" points="1754.62,582.66 1755.6,585.3 404.77,1090.5 403.79,1087.85 "/>
    <polygon id="_104" class="fil23" points="1755.28,584.42 1756.26,587.07 405.44,1092.26 404.45,1089.62 "/>
    <polygon id="_105" class="fil24" points="1755.94,586.19 1756.92,588.84 406.1,1094.03 405.11,1091.38 "/>
    <polygon id="_106" class="fil24" points="1756.59,587.95 1757.59,590.6 406.76,1095.79 405.77,1093.14 "/>
    <polygon id="_107" class="fil25" points="1757.25,589.72 1758.25,592.37 407.42,1097.56 406.43,1094.91 "/>
    <polygon id="_108" class="fil25" points="1757.91,591.49 1758.9,594.13 408.08,1099.32 407.08,1096.67 "/>
    <polygon id="_109" class="fil26" points="1758.57,593.25 1759.56,595.89 408.74,1101.09 407.75,1098.44 "/>
    <polygon id="_110" class="fil27" points="1759.23,595.01 1760.22,597.66 409.4,1102.85 408.41,1100.21 "/>
    <polygon id="_111" class="fil27" points="1759.9,596.78 1760.88,599.42 410.06,1104.62 409.07,1101.97 "/>
    <polygon id="_112" class="fil27" points="1760.56,598.54 1761.54,601.19 410.72,1106.38 409.73,1103.74 "/>
    <polygon id="_113" class="fil28" points="1761.22,600.31 1762.21,602.95 411.38,1108.15 410.39,1105.5 "/>
    <polygon id="_114" class="fil28" points="1761.87,602.07 1762.87,604.72 412.04,1109.91 411.05,1107.26 "/>
    <polygon id="_115" class="fil28" points="1762.53,603.84 1763.53,606.49 412.7,1111.68 411.71,1109.03 "/>
    <polygon id="_116" class="fil29" points="1763.19,605.6 1764.19,608.25 413.36,1113.44 412.37,1110.79 "/>
    <polygon id="_117" class="fil29" points="1763.85,607.37 1764.84,610.01 414.02,1115.21 413.03,1112.56 "/>
    <polygon id="_118" class="fil30" points="1764.51,609.13 1765.5,611.78 414.68,1116.97 413.69,1114.32 "/>
    <polygon id="_119" class="fil31" points="1765.18,610.9 1766.16,613.54 415.34,1118.74 414.35,1116.09 "/>
    <polygon id="_120" class="fil32" points="1765.84,612.66 1766.82,615.31 416,1120.5 415.01,1117.86 "/>
    <polygon id="_121" class="fil33" points="1766.5,614.42 1767.49,617.07 416.66,1122.27 415.67,1119.62 "/>
    <polygon id="_122" class="fil33" points="1767.15,616.19 1768.15,618.84 417.32,1124.03 416.33,1121.38 "/>
    <polygon id="_123" class="fil34" points="1767.81,617.96 1768.81,620.61 417.98,1125.79 416.99,1123.15 "/>
    <polygon id="_124" class="fil35" points="1768.47,619.72 1769.47,622.37 418.64,1127.56 417.65,1124.91 "/>
    <polygon id="_125" class="fil35" points="1769.13,621.49 1770.12,624.14 419.3,1129.33 418.31,1126.68 "/>
    <polygon id="_126" class="fil36" points="1769.8,623.25 1770.78,625.9 419.96,1131.09 418.97,1128.44 "/>
    <polygon id="_127" class="fil36" points="1770.46,625.02 1771.44,627.66 420.62,1132.86 419.63,1130.21 "/>
    <polygon id="_128" class="fil37" points="1771.12,626.78 1772.11,629.43 421.28,1134.62 420.29,1131.98 "/>
    <polygon id="_129" class="fil38" points="1771.78,628.54 1772.77,631.19 421.94,1136.39 420.95,1133.74 "/>
    <polygon id="_130" class="fil39" points="1772.44,630.31 1773.43,632.96 422.6,1138.15 421.61,1135.5 "/>
    <polygon id="_131" class="fil40" points="1773.09,632.08 1774.09,634.73 423.26,1139.91 422.27,1137.27 "/>
    <polygon id="_132" class="fil41" points="1773.75,633.84 1774.75,636.49 423.92,1141.68 422.93,1139.03 "/>
    <polygon id="_133" class="fil41" points="1774.41,635.61 1775.4,638.26 424.58,1143.45 423.59,1140.8 "/>
    <polygon id="_134" class="fil42" points="1775.08,637.37 1776.06,640.02 425.24,1145.21 424.25,1142.56 "/>
    <polygon id="_135" class="fil42" points="1775.74,639.14 1776.72,641.78 425.9,1146.98 424.91,1144.33 "/>
    <polygon id="_136" class="fil43" points="1776.4,640.9 1777.39,643.55 426.56,1148.74 425.57,1146.1 "/>
    <polygon id="_137" class="fil43" points="1777.06,642.66 1778.05,645.31 427.22,1150.51 426.23,1147.86 "/>
    <polygon id="_138" class="fil44" points="1777.72,644.43 1778.71,647.08 427.88,1152.27 426.89,1149.62 "/>
    <polygon id="_139" class="fil45" points="1778.37,646.2 1779.37,648.84 428.54,1154.03 427.55,1151.39 "/>
    <polygon id="_140" class="fil46" points="1779.03,647.96 1780.03,650.61 429.2,1155.8 428.21,1153.15 "/>
    <polygon id="_141" class="fil47" points="1779.7,649.73 1780.69,652.38 429.86,1157.56 428.87,1154.92 "/>
    <polygon id="_142" class="fil48" points="1780.36,651.49 1781.34,654.14 430.52,1159.33 429.53,1156.68 "/>
    <polygon id="_143" class="fil49" points="1781.02,653.26 1782.01,655.9 431.18,1161.1 430.19,1158.45 "/>
    <polygon id="_144" class="fil50" points="1781.68,655.02 1782.67,657.67 431.84,1162.86 430.85,1160.21 "/>
    <polygon id="_145" class="fil51" points="1782.34,656.78 1783.33,659.43 432.5,1164.63 431.51,1161.98 "/>
    <polygon id="_146" class="fil52" points="1783,658.55 1783.99,661.2 433.16,1166.39 432.17,1163.74 "/>
    <polygon id="_147" class="fil53" points="1783.66,660.31 1784.65,662.96 433.82,1168.15 432.83,1165.51 "/>
    <polygon id="_148" class="fil54" points="1784.31,662.08 1785.31,664.73 434.48,1169.92 433.49,1167.27 "/>
    <polygon id="_149" class="fil55" points="1784.98,663.85 1785.97,666.5 435.14,1171.68 434.15,1169.03 "/>
    <polygon id="_150" class="fil56" points="1785.64,665.61 1786.62,668.26 435.8,1173.45 434.81,1170.8 "/>
    <polygon id="_151" class="fil57" points="1786.3,667.38 1787.29,670.02 436.46,1175.22 435.47,1172.57 "/>
    <polygon id="_152" class="fil58" points="1786.96,669.14 1787.95,671.79 437.12,1176.98 436.13,1174.33 "/>
    <polygon id="_153" class="fil59" points="1787.62,670.9 1788.61,673.55 437.78,1178.75 436.79,1176.1 "/>
    <polygon id="_154" class="fil59" points="1788.28,672.67 1789.27,675.32 438.44,1180.51 437.45,1177.86 "/>
    <polygon id="_155" class="fil60" points="1788.94,674.43 1789.93,677.08 439.1,1182.27 438.11,1179.63 "/>
    <polygon id="_156" class="fil61" points="1789.6,676.2 1790.59,678.85 439.76,1184.04 438.77,1181.39 "/>
    <polygon id="_157" class="fil62" points="1790.26,677.97 1791.25,680.61 440.42,1185.8 439.43,1183.15 "/>
    <polygon id="_158" class="fil63" points="1790.92,679.73 1791.91,682.38 441.08,1187.57 440.09,1184.92 "/>
    <polygon id="_159" class="fil64" points="1791.58,681.5 1792.57,684.14 441.74,1189.34 440.75,1186.69 "/>
    <polygon id="_160" class="fil65" points="1792.24,683.26 1793.23,685.91 442.4,1191.1 441.41,1188.45 "/>
    <polygon id="_161" class="fil65" points="1792.9,685.02 1793.89,687.67 443.06,1192.87 442.07,1190.22 "/>
    <polygon id="_162" class="fil66" points="1793.56,686.79 1794.55,689.44 443.72,1194.63 442.73,1191.98 "/>
    <polygon id="_163" class="fil67" points="1794.22,688.55 1795.21,691.2 444.38,1196.39 443.39,1193.75 "/>
    <polygon id="_164" class="fil68" points="1794.88,690.32 1795.87,692.97 445.04,1198.16 444.05,1195.51 "/>
    <polygon id="_165" class="fil69" points="1795.54,692.08 1796.53,694.73 445.7,1199.92 444.71,1197.28 "/>
    <polygon id="_166" class="fil70" points="1796.2,693.85 1797.19,696.5 446.36,1201.69 445.37,1199.04 "/>
    <polygon id="_167" class="fil71" points="1796.86,695.62 1797.85,698.26 447.02,1203.45 446.03,1200.81 "/>
    <polygon id="_168" class="fil72" points="1797.52,697.38 1798.51,700.03 447.68,1205.22 446.69,1202.57 "/>
    <polygon id="_169" class="fil73" points="1798.18,699.14 1799.17,701.79 448.34,1206.99 447.35,1204.34 "/>
    <polygon id="_170" class="fil74" points="1798.84,700.91 1799.83,703.55 449,1208.75 448.01,1206.1 "/>
    <polygon id="_171" class="fil75" points="1799.5,702.67 1800.49,705.32 449.66,1210.51 448.67,1207.87 "/>
    <polygon id="_172" class="fil76" points="1800.16,704.44 1801.15,707.09 450.32,1212.28 449.33,1209.63 "/>
    <polygon id="_173" class="fil77" points="1800.82,706.2 1801.81,708.85 450.98,1214.04 449.99,1211.4 "/>
    <polygon id="_174" class="fil78" points="1801.48,707.97 1802.47,710.62 451.64,1215.81 450.65,1213.16 "/>
    <polygon id="_175" class="fil79" points="1802.14,709.74 1803.13,712.38 452.3,1217.57 451.31,1214.92 "/>
    <polygon id="_176" class="fil80" points="1802.8,711.5 1803.79,714.15 452.96,1219.34 451.97,1216.69 "/>
    <polygon id="_177" class="fil81" points="1803.46,713.26 1804.45,715.91 453.62,1221.11 452.63,1218.46 "/>
    <polygon id="_178" class="fil82" points="1804.12,715.03 1805.11,717.67 454.28,1222.87 453.29,1220.22 "/>
    <polygon id="_179" class="fil83" points="1804.78,716.79 1805.77,719.44 454.94,1224.63 453.95,1221.99 "/>
    <polygon id="_180" class="fil84" points="1805.44,718.56 1806.43,721.21 455.6,1226.4 454.61,1223.75 "/>
    <polygon id="_181" class="fil85" points="1806.1,720.32 1807.09,722.97 456.26,1228.16 455.27,1225.52 "/>
    <polygon id="_182" class="fil86" points="1806.76,722.09 1807.75,724.74 456.92,1229.93 455.93,1227.28 "/>
    <polygon id="_183" class="fil87" points="1807.42,723.86 1808.41,726.5 457.58,1231.69 456.59,1229.04 "/>
    <polygon id="_184" class="fil88" points="1808.08,725.62 1809.07,728.27 458.24,1233.46 457.25,1230.81 "/>
    <polygon id="_185" class="fil89" points="1808.74,727.39 1809.73,730.03 458.9,1235.22 457.91,1232.58 "/>
    <polygon id="_186" class="fil90" points="1809.4,729.15 1810.39,731.79 459.56,1236.99 458.57,1234.34 "/>
    <polygon id="_187" class="fil91" points="1810.06,730.91 1811.05,733.56 460.22,1238.75 459.23,1236.11 "/>
    <polygon id="_188" class="fil92" points="1810.72,732.68 1811.71,735.32 460.88,1240.52 459.89,1237.87 "/>
    <polygon id="_189" class="fil93" points="1811.38,734.44 1812.37,737.09 461.54,1242.28 460.55,1239.64 "/>
    <polygon id="_190" class="fil94" points="1812.04,736.21 1813.03,738.86 462.2,1244.05 461.21,1241.4 "/>
    <polygon id="_191" class="fil95" points="1812.7,737.97 1813.69,740.62 462.86,1245.81 461.87,1243.16 "/>
    <polygon id="_192" class="fil96" points="1813.36,739.74 1814.35,742.39 463.52,1247.58 462.53,1244.93 "/>
    <polygon id="_193" class="fil97" points="1814.02,741.51 1815.01,744.15 464.18,1249.34 463.19,1246.69 "/>
    <polygon id="_194" class="fil98" points="1814.68,743.27 1815.67,745.91 464.85,1251.11 463.85,1248.46 "/>
    <polygon id="_195" class="fil99" points="1815.34,745.03 1816.33,747.68 465.5,1252.87 464.51,1250.23 "/>
    <polygon id="_196" class="fil100" points="1816,746.8 1816.99,749.44 466.16,1254.64 465.17,1251.99 "/>
    <polygon id="_197" class="fil101" points="1816.66,748.56 1817.65,751.21 466.82,1256.4 465.83,1253.76 "/>
    <polygon id="_198" class="fil102" points="1817.32,750.33 1818.31,752.98 467.48,1258.16 466.49,1255.52 "/>
    <polygon id="_199" class="fil103" points="1817.98,752.09 1818.97,754.74 468.14,1259.93 467.16,1257.28 "/>
    <polygon id="_200" class="fil104" points="1818.64,753.86 1819.63,756.51 468.8,1261.7 467.82,1259.05 "/>
    <polygon id="_201" class="fil105" points="1819.3,755.63 1820.29,758.27 469.46,1263.46 468.47,1260.81 "/>
    <polygon id="_202" class="fil106" points="1819.96,757.39 1820.95,760.03 470.13,1265.23 469.13,1262.58 "/>
    <polygon id="_203" class="fil107" points="1820.62,759.15 1821.61,761.8 470.78,1266.99 469.79,1264.35 "/>
    <polygon id="_204" class="fil108" points="1821.28,760.92 1822.27,763.56 471.44,1268.76 470.45,1266.11 "/>
    <polygon id="_205" class="fil109" points="1821.94,762.68 1822.93,765.33 472.1,1270.52 471.11,1267.88 "/>
    <polygon id="_206" class="fil110" points="1822.6,764.45 1823.59,767.1 472.76,1272.28 471.77,1269.64 "/>
    <polygon id="_207" class="fil111" points="1823.26,766.21 1824.25,768.86 473.42,1274.05 472.44,1271.4 "/>
    <polygon id="_208" class="fil112" points="1823.92,767.98 1824.91,770.63 474.08,1275.82 473.1,1273.17 "/>
    <polygon id="_209" class="fil113" points="1824.58,769.74 1825.57,772.39 474.75,1277.58 473.75,1274.93 "/>
    <polygon id="_210" class="fil114" points="1825.24,771.51 1826.23,774.15 475.41,1279.35 474.41,1276.7 "/>
    <polygon id="_211" class="fil115" points="1825.9,773.27 1826.89,775.92 476.07,1281.11 475.07,1278.47 "/>
    <polygon id="_212" class="fil116" points="1826.56,775.04 1827.55,777.68 476.72,1282.88 475.73,1280.23 "/>
    <polygon id="_213" class="fil117" points="1827.22,776.8 1828.21,779.45 477.38,1284.64 476.39,1282 "/>
    <polygon id="_214" class="fil118" points="1827.88,778.57 1828.87,781.21 478.04,1286.4 477.05,1283.76 "/>
    <polygon id="_215" class="fil119" points="1828.54,780.33 1829.53,782.98 478.7,1288.17 477.72,1285.52 "/>
    <polygon id="_216" class="fil120" points="1829.2,782.1 1830.19,784.75 479.36,1289.93 478.38,1287.29 "/>
    <polygon id="_217" class="fil121" points="1829.86,783.86 1830.85,786.51 480.03,1291.7 479.03,1289.05 "/>
    <polygon id="_218" class="fil122" points="1830.52,785.63 1831.51,788.27 480.69,1293.47 479.69,1290.82 "/>
    <polygon id="_219" class="fil123" points="1831.18,787.39 1832.17,790.04 481.35,1295.23 480.35,1292.58 "/>
    <polygon id="_220" class="fil124" points="1831.84,789.16 1832.83,791.8 482,1297 481.01,1294.35 "/>
    <polygon id="_221" class="fil125" points="1832.5,790.92 1833.49,793.57 482.66,1298.76 481.67,1296.12 "/>
    <polygon id="_222" class="fil126" points="1833.16,792.68 1834.15,795.33 483.32,1300.53 482.34,1297.88 "/>
    <polygon id="_223" class="fil127" points="1833.82,794.45 1834.81,797.1 483.98,1302.29 483,1299.64 "/>
    <polygon id="_224" class="fil128" points="1834.48,796.22 1835.47,798.87 484.65,1304.05 483.66,1301.41 "/>
    <polygon id="_225" class="fil129" points="1835.14,797.98 1836.13,800.63 485.31,1305.82 484.32,1303.17 "/>
    <polygon id="_226" class="fil130" points="1835.8,799.75 1836.79,802.39 485.97,1307.59 484.97,1304.94 "/>
    <polygon id="_227" class="fil131" points="1836.46,801.51 1837.45,804.16 486.63,1309.35 485.63,1306.7 "/>
    <polygon id="_228" class="fil132" points="1837.12,803.28 1838.11,805.92 487.29,1311.12 486.29,1308.47 "/>
    <polygon id="_229" class="fil133" points="1837.78,805.04 1838.77,807.69 487.94,1312.88 486.95,1310.24 "/>
    <polygon id="_230" class="fil134" points="1838.44,806.8 1839.43,809.45 488.6,1314.65 487.62,1312 "/>
    <polygon id="_231" class="fil135" points="1839.1,808.57 1840.09,811.22 489.26,1316.41 488.28,1313.76 "/>
    <polygon id="_232" class="fil136" points="1839.76,810.34 1840.75,812.98 489.93,1318.17 488.94,1315.53 "/>
    <polygon id="_233" class="fil137" points="1840.42,812.1 1841.41,814.75 490.59,1319.94 489.6,1317.29 "/>
    <polygon id="_234" class="fil138" points="1841.08,813.87 1842.07,816.52 491.25,1321.71 490.25,1319.06 "/>
    <polygon id="_235" class="fil139" points="1841.74,815.63 1842.73,818.28 491.91,1323.47 490.91,1320.82 "/>
    <polygon id="_236" class="fil140" points="1842.4,817.4 1843.39,820.04 492.57,1325.24 491.57,1322.59 "/>
    <polygon id="_237" class="fil141" points="1843.06,819.16 1844.05,821.81 493.22,1327 492.24,1324.35 "/>
    <polygon id="_238" class="fil142" points="1843.72,820.92 1844.71,823.57 493.88,1328.77 492.9,1326.12 "/>
    <polygon id="_239" class="fil143" points="1844.39,822.69 1845.37,825.34 494.55,1330.53 493.56,1327.88 "/>
    <polygon id="_240" class="fil144" points="1845.04,824.45 1846.03,827.1 495.21,1332.29 494.22,1329.65 "/>
    <polygon id="_241" class="fil145" points="1845.7,826.22 1846.7,828.87 495.87,1334.06 494.88,1331.41 "/>
    <polygon id="_242" class="fil146" points="1846.36,827.99 1847.36,830.64 496.53,1335.82 495.54,1333.18 "/>
    <polygon id="_243" class="fil147" points="1847.02,829.75 1848.01,832.4 497.19,1337.59 496.19,1334.94 "/>
    <polygon id="_244" class="fil148" points="1847.68,831.52 1848.67,834.16 497.85,1339.36 496.85,1336.71 "/>
    <polygon id="_245" class="fil149" points="1848.34,833.28 1849.33,835.93 498.5,1341.12 497.52,1338.47 "/>
    <polygon id="_246" class="fil150" points="1849,835.04 1849.99,837.69 499.16,1342.89 498.18,1340.24 "/>
    <polygon id="_247" class="fil151" points="1849.67,836.81 1850.65,839.46 499.83,1344.65 498.84,1342 "/>
    <polygon id="_248" class="fil152" points="1850.32,838.57 1851.31,841.22 500.49,1346.41 499.5,1343.77 "/>
    <polygon id="_249" class="fil153" points="1850.98,840.34 1851.98,842.99 501.15,1348.18 500.16,1345.53 "/>
    <polygon id="_250" class="fil154" points="1851.64,842.11 1852.64,844.76 501.81,1349.94 500.82,1347.29 "/>
    <polygon id="_251" class="fil155" points="1852.3,843.87 1853.29,846.52 502.47,1351.71 501.47,1349.06 "/>
    <polygon id="_252" class="fil155" points="1852.96,845.64 1853.95,848.28 503.13,1353.48 502.14,1350.83 "/>
    <polygon id="_253" class="fil156" points="1853.62,847.4 1854.61,850.05 503.79,1355.24 502.8,1352.59 "/>
    <polygon id="_254" class="fil156" points="1854.29,849.16 1855.27,851.81 504.44,1357.01 503.46,1354.36 "/>
    <polygon id="_255" class="fil157" points="1854.95,850.93 1962.92,1139.65 612.09,1644.84 504.12,1356.12 "/>
   </g>
  </g>
 </g>
</svg>
